<?xml version="1.0" encoding="utf-8"?>
<!-- Generator: Adobe Illustrator 21.0.2, SVG Export Plug-In . SVG Version: 6.00 Build 0)  -->
<svg version="1.1" id="Layer_1" xmlns="http://www.w3.org/2000/svg" xmlns:xlink="http://www.w3.org/1999/xlink" x="0px" y="0px"
	 viewBox="0 0 86.1 81.1" style="enable-background:new 0 0 86.1 81.1;" xml:space="preserve">
<style type="text/css">
	.st0{fill:#FFCA00;}
</style>
<g>
	<g>
		<path class="st0" d="M48.8,63.5c-2.7,2.7-18.9,13.7-18.9,13.7L36,72c-2-2.4-6-8-7.7-10.7L20,67.6c2.6,3.3,7.9,13.5,9.4,13.5
			c2.1,0,15.8-11.3,19.5-13.6C48.9,66.3,48.8,64.8,48.8,63.5z"/>
		<path class="st0" d="M86.1,32.5c0,0-26.5-32.5-27.2-32.5C58.1,0,50,5.2,50,6.2c0,7.9-0.7,74.8,0,74.8c0.9,0,35.2-23.9,35.2-24.7
			c0-2.4-11.7-13.7-12.4-14.7c-0.5-0.6-2-2.5-2-2.5l2.4,2.3C75.2,39.5,86.1,33.1,86.1,32.5z M74.2,59.8c0,1.2-21.5,15-21.5,15l6-5
			c-0.3-4.1,0-15.8,0-17.8c0-0.8,4.8-3.6,6.4-3.6C66.2,48.5,74.2,59,74.2,59.8z M53.1,50.7l5.6-4.9c0.1-4.9,0-23.3,0-27.7
			c-2.1-3.1-5.4-8.2-5.4-8.2s21.5,25.3,21.5,25.9C74.8,36.3,53.1,50.7,53.1,50.7z"/>
	</g>
	<path class="st0" d="M34,0c-2.5,0-15.5,9.9-15.5,10.5c0,0.2,1.4,2.2,1.6,2.2c0.4,0,4.4-3,6.1-3.8l-0.4-2.5c0,0,14.8,19.8,15.7,19.8
		c1.5,0,7.4-5.5,7.4-6.1C48.9,19.3,34.5,0,34,0z"/>
	<path class="st0" d="M8.9,0C8.3,0,0,4.3,0,6.2C0,10.7,0,75.7,0,81c0,0.9,43.1-32.8,43.1-33.5C43.2,46,9.7,0,8.9,0z M3.1,72.8
		l5.6-5.6c0-8.3,0.1-47.5,0.2-48.6C7,15.4,4.6,10,4.6,10s27.1,39.2,27.1,39.9C31.8,50.8,3.1,72.8,3.1,72.8z"/>
</g>
</svg>
