<?xml version="1.0" encoding="utf-8"?>
<!-- Generator: Adobe Illustrator 19.1.0, SVG Export Plug-In . SVG Version: 6.00 Build 0)  -->
<svg version="1.1" id="Camada_1" xmlns="http://www.w3.org/2000/svg" xmlns:xlink="http://www.w3.org/1999/xlink" x="0px" y="0px"
	 viewBox="0 0 36.7 36.7" style="enable-background:new 0 0 36.7 36.7;" xml:space="preserve">
<style type="text/css">
	.st0{fill:#FFFFFF;}
</style>
<g id="Behance_3_">
	<path class="st0" d="M15.1,17.2c0.8-0.4,1.3-0.8,1.7-1.3c0.7-0.8,1-1.9,1-3.3c0-1.3-0.3-2.5-1-3.4c-1.2-1.5-3.1-2.3-5.9-2.4H0v22.3
		h10.2c1.2,0,2.2-0.1,3.2-0.3c1-0.2,1.8-0.6,2.6-1.1c0.6-0.5,1.2-1.1,1.6-1.8c0.7-1,1-2.2,1-3.6c0-1.3-0.3-2.4-0.9-3.3
		C17.1,18.3,16.2,17.6,15.1,17.2z M4.5,10.8h4.9c1.1,0,2,0.1,2.7,0.3c0.8,0.3,1.2,1,1.2,2.1c0,0.9-0.3,1.6-0.9,2
		c-0.6,0.4-1.4,0.6-2.4,0.6H4.5V10.8z M12.3,24.9c-0.5,0.3-1.3,0.4-2.3,0.4H4.5v-6h5.6c1,0,1.7,0.1,2.3,0.4c1,0.4,1.4,1.2,1.4,2.4
		C13.8,23.5,13.3,24.5,12.3,24.9z"/>
	<rect x="23.4" y="7.9" class="st0" width="9.7" height="2.8"/>
	<path class="st0" d="M35.2,15.5c-0.8-1.1-1.7-1.9-2.9-2.4c-1.2-0.5-2.5-0.8-3.9-0.8c-2.5,0-4.4,0.8-6,2.3c-1.5,1.5-2.3,3.7-2.3,6.6
		c0,3.1,0.8,5.3,2.6,6.6c1.7,1.4,3.7,2,5.9,2c2.7,0,4.8-0.8,6.3-2.4c1-1,1.5-2,1.6-3h-4.5c-0.3,0.5-0.6,0.9-0.9,1.1
		c-0.6,0.5-1.4,0.8-2.4,0.8c-0.9,0-1.7-0.2-2.4-0.6c-1.1-0.7-1.7-1.8-1.8-3.5h12.2c0-1.4,0-2.5-0.1-3.3
		C36.3,17.6,35.9,16.5,35.2,15.5z M24.6,19.3c0.2-1.1,0.5-1.9,1.2-2.6c0.6-0.6,1.5-0.9,2.6-0.9c1,0,1.9,0.3,2.6,0.9
		c0.7,0.6,1.1,1.5,1.2,2.6H24.6z"/>
</g>
</svg>
