<?xml version="1.0" encoding="utf-8"?>
<!-- Generator: Adobe Illustrator 19.1.0, SVG Export Plug-In . SVG Version: 6.00 Build 0)  -->
<svg version="1.1" id="Camada_1" xmlns="http://www.w3.org/2000/svg" xmlns:xlink="http://www.w3.org/1999/xlink" x="0px" y="0px"
	 viewBox="-448.9 109.3 94.6 89.1" style="enable-background:new -448.9 109.3 94.6 89.1;" xml:space="preserve">
<style type="text/css">
	.st0{fill:#FFFFFF;}
</style>
<g>
	<g>
		<g>
			<path class="st0" d="M-395.3,179.1c-3,3-20.8,15.1-20.8,15.1l6.7-5.7c-2.2-2.6-6.6-8.8-8.5-11.7l-9,6.8
				c2.9,3.6,8.7,14.8,10.3,14.8c2.3,0,17.4-12.4,21.4-14.9C-395.2,182.1-395.3,180.5-395.3,179.1z"/>
			<path class="st0" d="M-354.3,145c0,0-29.1-35.7-29.9-35.7c-0.9,0-9.8,5.7-9.8,6.8c0,8.7-0.8,82.2,0,82.2c1,0,38.7-26.3,38.7-27.1
				c0-2.6-12.8-15.1-13.6-16.1c-0.6-0.7-2.2-2.8-2.2-2.8l2.6,2.5C-366.3,152.7-354.3,145.7-354.3,145z M-367.4,175
				c0,1.3-23.6,16.5-23.6,16.5l6.6-5.5c-0.3-4.5,0-17.4,0-19.5c0-0.9,5.3-3.9,7-3.9C-376.2,162.6-367.4,174.1-367.4,175z
				 M-390.6,165l6.1-5.4c0.1-5.4,0-25.6,0-30.4c-2.3-3.4-5.9-9-5.9-9s23.6,27.8,23.6,28.4C-366.7,149.2-390.6,165-390.6,165z"/>
		</g>
		<path class="st0" d="M-411.6,109.3c-2.7,0-17,10.9-17,11.5c0,0.2,1.5,2.4,1.8,2.4c0.4,0,4.8-3.3,6.7-4.2l-0.4-2.8
			c0,0,16.3,21.8,17.2,21.8c1.6,0,8.1-6,8.1-6.7C-395.2,130.5-411,109.3-411.6,109.3z"/>
		<path class="st0" d="M-439.1,109.3c-0.7,0-9.8,4.7-9.8,6.8c0,5,0,76.4,0,82.2c0,1,47.4-36,47.4-36.8
			C-401.4,159.8-438.2,109.3-439.1,109.3z M-445.5,189.3l6.2-6.2c0-9.1,0.1-52.2,0.2-53.4c-2.1-3.5-4.7-9.4-4.7-9.4
			s29.8,43.1,29.8,43.8C-414,165.1-445.5,189.3-445.5,189.3z"/>
	</g>
</g>
</svg>
