<svg width="24" height="24" viewBox="0 0 24 24" fill="none" xmlns="http://www.w3.org/2000/svg">
<rect width="24" height="24" fill="white"/>
<path id="github" d="M7.98387 19.171C7.98387 19.0742 7.8871 18.9775 7.74194 18.9775C7.59677 18.9775 7.5 19.0742 7.5 19.171C7.5 19.2678 7.59677 19.3646 7.74194 19.3162C7.8871 19.3162 7.98387 19.2678 7.98387 19.171ZM6.48387 18.9291C6.48387 19.0259 6.58064 19.171 6.72581 19.171C6.82258 19.2194 6.96774 19.171 7.01613 19.0742C7.01613 18.9775 6.96774 18.8807 6.82258 18.8323C6.67742 18.7839 6.53226 18.8323 6.48387 18.9291ZM8.66129 18.8807C8.51613 18.8807 8.41935 18.9775 8.41935 19.1226C8.41935 19.2194 8.56452 19.2678 8.70968 19.2194C8.85484 19.171 8.95161 19.1226 8.90323 19.0259C8.90323 18.9291 8.75806 18.8323 8.66129 18.8807ZM11.8065 0.300049C5.12903 0.300049 0 5.42908 0 12.1065C0 17.4775 3.33871 22.0742 8.17742 23.7194C8.80645 23.8162 9 23.4291 9 23.1388C9 22.8 9 21.1549 9 20.1388C9 20.1388 5.6129 20.8646 4.8871 18.6871C4.8871 18.6871 4.35484 17.2839 3.58065 16.9452C3.58065 16.9452 2.46774 16.171 3.62903 16.171C3.62903 16.171 4.83871 16.2678 5.51613 17.4291C6.58064 19.3162 8.32258 18.7839 9.04839 18.4452C9.14516 17.671 9.43548 17.1388 9.82258 16.8C7.1129 16.5097 4.35484 16.1226 4.35484 11.4775C4.35484 10.1226 4.74194 9.4936 5.51613 8.62263C5.37097 8.28392 4.98387 7.02586 5.66129 5.33231C6.62903 5.04198 9 6.63876 9 6.63876C9.96774 6.34844 10.9839 6.25166 12 6.25166C13.0645 6.25166 14.0806 6.34844 15.0484 6.63876C15.0484 6.63876 17.371 4.9936 18.3871 5.33231C19.0645 7.02586 18.629 8.28392 18.5323 8.62263C19.3065 9.4936 19.7903 10.1226 19.7903 11.4775C19.7903 16.1226 16.9355 16.5097 14.2258 16.8C14.6613 17.1871 15.0484 17.913 15.0484 19.0742C15.0484 20.671 15 22.7033 15 23.0904C15 23.4291 15.2419 23.8162 15.871 23.671C20.7097 22.0742 24 17.4775 24 12.1065C24 5.42908 18.5323 0.300049 11.8065 0.300049ZM4.69355 16.9936C4.59677 17.042 4.64516 17.1871 4.69355 17.2839C4.79032 17.3323 4.8871 17.3807 4.98387 17.3323C5.03226 17.2839 5.03226 17.1388 4.93548 17.042C4.83871 16.9936 4.74194 16.9452 4.69355 16.9936ZM4.16129 16.6065C4.1129 16.7033 4.16129 16.7517 4.25806 16.8C4.35484 16.8484 4.45161 16.8484 4.5 16.7517C4.5 16.7033 4.45161 16.6549 4.35484 16.6065C4.25806 16.5581 4.20968 16.5581 4.16129 16.6065ZM5.70968 18.3484C5.66129 18.3968 5.66129 18.542 5.80645 18.6388C5.90323 18.7355 6.04839 18.7839 6.09677 18.6871C6.14516 18.6388 6.14516 18.4936 6.04839 18.3968C5.95161 18.3 5.80645 18.2517 5.70968 18.3484ZM5.17742 17.6226C5.08065 17.671 5.08065 17.8162 5.17742 17.913C5.27419 18.0097 5.37097 18.0581 5.46774 18.0097C5.51613 17.9613 5.51613 17.8162 5.46774 17.7194C5.37097 17.6226 5.27419 17.5742 5.17742 17.6226Z"/>
<path id="dribbble" d="M12 0C5.37097 0 0 5.41935 0 12C0 18.629 5.37097 24 12 24C18.5806 24 24 18.629 24 12C24 5.41935 18.5806 0 12 0ZM19.8871 5.56452C21.3387 7.30645 22.2097 9.53226 22.2097 11.9516C21.871 11.8548 18.4839 11.1774 15.0968 11.6129C14.8065 10.9355 14.5645 10.3548 14.1774 9.58064C18 8.03226 19.6935 5.85484 19.8871 5.56452ZM18.7742 4.35484C18.5806 4.64516 17.0323 6.72581 13.4032 8.08064C11.7097 4.98387 9.87097 2.46774 9.58064 2.08065C12.8226 1.30645 16.2581 2.12903 18.7742 4.35484ZM7.59677 2.75806C7.8871 3.14516 9.72581 5.66129 11.4194 8.70968C6.62903 9.96774 2.41935 9.96774 1.93548 9.91935C2.6129 6.77419 4.74194 4.1129 7.59677 2.75806ZM1.74194 12.0484C1.74194 11.9516 1.74194 11.8548 1.74194 11.7097C2.17742 11.7581 7.16129 11.8065 12.2419 10.2581C12.5806 10.8387 12.8226 11.4194 13.1129 12C9.3871 13.0645 6 16.0645 4.35484 18.871C2.70968 17.0806 1.74194 14.6613 1.74194 12.0484ZM5.66129 20.129C6.77419 17.9516 9.67742 15.0968 13.7903 13.6935C15.2419 17.4194 15.8226 20.5645 15.9677 21.4839C12.6774 22.8871 8.70968 22.5 5.66129 20.129ZM17.7097 20.5161C17.6129 19.9355 17.0323 16.9355 15.7258 13.2097C18.9194 12.7258 21.7258 13.5484 22.1129 13.6452C21.629 16.5 19.9839 18.9677 17.7097 20.5161Z"/>
<path id="linkedin" d="M21.4286 1H2.52232C1.6875 1 1 1.73661 1 2.62054V21.4286C1 22.3125 1.6875 23 2.52232 23H21.4286C22.2634 23 23 22.3125 23 21.4286V2.62054C23 1.73661 22.2634 1 21.4286 1ZM7.62946 19.8571H4.38839V9.39732H7.62946V19.8571ZM6.00893 7.92411C4.92857 7.92411 4.09375 7.08929 4.09375 6.05804C4.09375 5.02679 4.92857 4.14286 6.00893 4.14286C7.04018 4.14286 7.875 5.02679 7.875 6.05804C7.875 7.08929 7.04018 7.92411 6.00893 7.92411ZM19.8571 19.8571H16.567V14.75C16.567 13.5714 16.567 12 14.8973 12C13.1786 12 12.933 13.3259 12.933 14.7009V19.8571H9.69196V9.39732H12.7857V10.8214H12.8348C13.2768 9.98661 14.3571 9.10268 15.9286 9.10268C19.2188 9.10268 19.8571 11.3125 19.8571 14.1116V19.8571Z"/>
</svg>
