<svg width="598" height="229" viewBox="0 0 598 229" xmlns="http://www.w3.org/2000/svg">
<path fill-rule="evenodd" clip-rule="evenodd" d="M42 0H70.0169C78.1987 0 85.3048 0.880113 91.3352 2.64034C97.3656 4.40056 102.353 6.92681 106.297 10.2191C110.274 13.4788 113.224 17.4556 115.147 22.1495C117.103 26.8108 118.081 32.0589 118.081 37.8937C118.081 43.4352 117.119 48.5692 115.196 53.2957C113.273 57.9896 110.339 62.0642 106.395 65.5195C102.451 68.9421 97.4634 71.6314 91.433 73.5872C85.4026 75.5104 78.2965 76.472 70.1147 76.472L64.5966 76.4624C66.2851 78.0346 67.5869 79.8248 68.5021 81.8331C69.7082 84.3757 70.3112 87.1301 70.3112 90.0964C70.3112 94.9533 68.7791 99.2072 65.715 102.858C69.2355 104.944 71.8595 107.65 73.5872 110.975C75.3148 114.3 76.1786 118.081 76.1786 122.318C76.1786 125.871 75.5756 129.082 74.3695 131.951C73.196 134.819 71.3869 137.28 68.9421 139.334C66.53 141.355 63.4659 142.919 59.7498 144.028C56.0664 145.103 51.7147 145.641 46.6948 145.641H0V69.2182H40.8274C41.2224 69.2182 41.6132 69.2216 42 69.2283V0ZM73.8307 63.0258C78.4595 63.0258 82.5178 62.4391 86.0056 61.2656C89.4935 60.0595 92.3946 58.3645 94.709 56.1805C97.0559 53.9965 98.8161 51.3562 99.9896 48.2595C101.163 45.1628 101.75 41.7076 101.75 37.8937C101.75 34.1451 101.163 30.7713 99.9896 27.7724C98.8161 24.7409 97.0559 22.1821 94.709 20.0959C92.3946 17.9771 89.4935 16.3473 86.0056 15.2064C82.5178 14.0655 78.4595 13.4951 73.8307 13.4951H57.4998V63.0258H73.8307ZM151.584 0H168.013L201.493 69.2182H208.655V0H224.155L271.779 24.9365V0H287.278V69.2182H296.642C298.128 69.2182 299.556 69.2659 300.926 69.3614V0H316.523V73.6246C317.369 74.1077 318.158 74.6273 318.889 75.1834C321.334 77.0414 323.143 79.258 324.317 81.8331C325.523 84.3757 326.126 87.1301 326.126 90.0964C326.126 94.9533 324.594 99.2072 321.53 102.858C325.05 104.944 327.674 107.65 329.402 110.975C331.129 114.3 331.993 118.081 331.993 122.318C331.993 125.871 331.39 129.082 330.184 131.951C329.011 134.819 327.202 137.28 324.757 139.334C322.345 141.355 319.281 142.919 315.564 144.028C311.881 145.103 307.529 145.641 302.509 145.641H255.815V69.2182H271.779V41.3653L224.155 16.5755V70.7482C224.566 70.8522 224.971 70.9616 225.369 71.0762C229.672 72.2823 233.242 74.0425 236.077 76.3569C238.913 78.6713 241.016 81.4909 242.385 84.8158C243.787 88.1406 244.487 91.9055 244.487 96.1105C244.487 98.9464 244.145 101.652 243.461 104.227C242.776 106.77 241.717 109.117 240.282 111.268C238.881 113.419 237.104 115.343 234.953 117.038C232.801 118.7 230.275 120.085 227.374 121.194L243.998 145.641H225.027L210.652 123.932H210.212L186.742 123.883V145.641H171.242V69.2182H185.271L182.584 63.5637H137.942L132.026 76.4231H131.889L165.369 145.641H149.087L142.975 132.782H98.334L92.4177 145.641H76.0867L111.976 69.2182H119.079L151.584 0ZM176.472 50.802L159.945 16.0865L143.859 50.802H176.472ZM395.397 0H330.318V76.4231H352.35C351.205 77.2406 350.114 78.115 349.077 79.0461C345.263 82.4688 342.297 86.576 340.178 91.3677C338.059 96.1594 337 101.44 337 107.21C337 113.012 338.059 118.342 340.178 123.198C342.297 128.023 345.263 132.179 349.077 135.667C352.923 139.155 357.52 141.876 362.866 143.832C368.244 145.755 374.193 146.717 380.712 146.717C387.199 146.717 393.132 145.755 398.51 143.832C403.889 141.876 408.485 139.155 412.298 135.667C416.145 132.179 419.128 128.023 421.246 123.198C423.365 118.342 424.424 113.012 424.424 107.21C424.424 101.44 423.365 96.1594 421.246 91.3677C419.128 86.576 416.145 82.4688 412.298 79.0461C411.271 78.115 410.186 77.2406 409.045 76.4231H436.783C434.913 77.9621 433.37 79.635 432.155 81.442C430.917 83.3 430.004 85.2558 429.417 87.3094C428.863 89.363 428.586 91.4329 428.586 93.5191C428.586 97.0395 429.303 100.12 430.737 102.76C432.172 105.401 434.095 107.601 436.507 109.361C438.952 111.121 441.739 112.442 444.868 113.322C448.03 114.202 451.322 114.642 454.745 114.642C456.798 114.642 458.982 114.511 461.297 114.251C463.644 113.957 466.007 113.648 468.387 113.322C470.799 112.996 473.178 112.702 475.525 112.442C477.872 112.148 480.105 112.001 482.224 112.001C487.048 112.001 490.618 112.816 492.932 114.446C495.246 116.043 496.404 118.227 496.404 120.998C496.404 122.726 495.931 124.323 494.986 125.79C494.073 127.257 492.59 128.528 490.536 129.604C488.515 130.647 485.891 131.478 482.664 132.097C479.437 132.684 475.525 132.977 470.929 132.977C467.115 132.977 463.513 132.749 460.123 132.293C456.766 131.837 453.555 131.185 450.491 130.337C447.427 129.457 444.461 128.398 441.592 127.159C438.756 125.888 435.953 124.47 433.182 122.905L424.919 135.471C427.82 137.134 430.966 138.666 434.356 140.067C437.778 141.436 441.364 142.626 445.113 143.637C448.894 144.615 452.838 145.364 456.945 145.886C461.052 146.44 465.257 146.717 469.56 146.717C476.079 146.717 481.996 146.114 487.309 144.908C492.622 143.669 497.153 141.876 500.902 139.529C504.683 137.15 507.584 134.249 509.605 130.826C511.659 127.371 512.686 123.443 512.686 119.042C512.686 115.75 512.083 112.784 510.876 110.143C509.67 107.47 507.894 105.205 505.547 103.347C503.2 101.456 500.283 100.006 496.795 98.9953C493.339 97.9848 489.363 97.4796 484.864 97.4796C482.485 97.4796 480.024 97.61 477.481 97.8708C474.971 98.0989 472.494 98.3597 470.049 98.6531C467.637 98.9464 465.323 99.2235 463.106 99.4843C460.922 99.7125 458.982 99.8266 457.287 99.8266C453.082 99.8266 449.953 99.1094 447.9 97.6752C445.846 96.2083 444.819 94.334 444.819 92.0522C444.819 90.8787 445.129 89.7053 445.748 88.5318C446.4 87.3257 447.541 86.25 449.171 85.3047C450.801 84.3268 452.985 83.5282 455.723 82.9088C458.493 82.2895 462.014 81.9798 466.284 81.9798C469.283 81.9798 472.217 82.1591 475.085 82.5177C477.986 82.8437 480.79 83.3 483.495 83.8867C486.201 84.4735 488.792 85.1743 491.27 85.9892C493.747 86.7716 496.061 87.6354 498.213 88.5807L505.009 76.0635C502.401 74.89 499.582 73.8306 496.55 72.8853C493.519 71.9074 490.357 71.0762 487.065 70.3917C486.711 70.3175 486.357 70.2452 486.001 70.1749L489.043 63.5637H533.684L539.796 76.4231H541.223L508.717 145.641H525.048L530.965 132.782H575.606L581.718 145.641H598L561.035 69.2182H552.593L519.114 0H502.685L470.598 68.3256C469.288 68.2688 467.981 68.2403 466.675 68.2403C466.624 68.2403 466.574 68.2403 466.523 68.2404V62.8302H422.077V0H406.578V74.798C404.119 73.3106 401.43 72.0537 398.51 71.0273C397.824 70.7861 397.128 70.5602 396.424 70.3497V62.8791H345.818V41.6098H389.725V28.8481H345.818V13.5928H395.397V0ZM511.046 16.0865L527.572 50.802H494.959L511.046 16.0865ZM354.602 117.869C353.201 114.707 352.5 111.154 352.5 107.21C352.5 103.266 353.201 99.7288 354.602 96.5995C356.037 93.4702 358.009 90.8299 360.519 88.6785C363.061 86.4945 366.044 84.8321 369.466 83.6912C372.922 82.5503 376.67 81.9798 380.712 81.9798C384.754 81.9798 388.487 82.5503 391.909 83.6912C395.365 84.8321 398.347 86.4945 400.857 88.6785C403.367 90.8299 405.339 93.4702 406.773 96.5995C408.208 99.7288 408.925 103.266 408.925 107.21C408.925 111.154 408.208 114.707 406.773 117.869C405.339 121.031 403.367 123.736 400.857 125.985C398.347 128.202 395.365 129.913 391.909 131.119C388.487 132.326 384.754 132.929 380.712 132.929C376.67 132.929 372.922 132.326 369.466 131.119C366.044 129.913 363.061 128.202 360.519 125.985C358.009 123.736 356.037 121.031 354.602 117.869ZM46.7926 98.5553C48.1291 98.5553 49.433 98.6042 50.7043 98.702C52.8882 96.6158 53.9802 94.2362 53.9802 91.5633C53.9802 88.7926 52.8882 86.6575 50.7043 85.158C48.5529 83.626 45.391 82.8599 41.2186 82.8599H15.4998V98.5553H46.7926ZM47.086 132.146C51.2584 132.146 54.4203 131.25 56.5717 129.457C58.7556 127.664 59.8476 125.138 59.8476 121.878C59.8476 118.619 58.7556 116.076 56.5717 114.251C54.4203 112.425 51.2584 111.512 47.086 111.512H15.4998V132.146H47.086ZM136.863 120.02L120.337 85.3047L104.25 120.02H136.863ZM218.182 109.459C215.998 110.143 213.439 110.486 210.505 110.486H186.742V82.7133H210.505C216.405 82.7133 220.822 83.8867 223.756 86.2337C226.69 88.5481 228.156 91.8404 228.156 96.1105C228.156 98.2945 227.782 100.283 227.032 102.076C226.315 103.836 225.206 105.335 223.707 106.574C222.24 107.813 220.398 108.774 218.182 109.459ZM302.607 98.5553C303.944 98.5553 305.248 98.6042 306.519 98.702C308.703 96.6158 309.795 94.2362 309.795 91.5633C309.795 88.7926 308.703 86.6575 306.519 85.158C304.367 83.626 301.206 82.8599 297.033 82.8599H271.314V98.5553H302.607ZM302.901 132.146C307.073 132.146 310.235 131.25 312.386 129.457C314.57 127.664 315.662 125.138 315.662 121.878C315.662 118.619 314.57 116.076 312.386 114.251C310.235 112.425 307.073 111.512 302.901 111.512H271.314V132.146H302.901ZM552.968 85.3047L569.494 120.02H536.881L552.968 85.3047Z" />
<path d="M103.294 174.582H98.1308V195.236H102.262V198.334H98.1308V227.25H94V171.484H103.294V174.582Z" />
<path d="M126.716 194.204C126.716 195.753 126.458 196.828 125.942 197.431C125.425 198.033 124.651 198.334 123.618 198.334C124.134 198.334 124.586 198.453 124.973 198.689C125.361 198.926 125.683 199.238 125.942 199.625C126.2 200.013 126.393 200.454 126.522 200.948C126.652 201.443 126.716 201.949 126.716 202.465V227.25H122.585V201.433C122.585 200.916 122.467 200.518 122.23 200.238C121.994 199.959 121.682 199.754 121.294 199.625C120.907 199.496 120.466 199.421 119.971 199.399C119.476 199.378 118.971 199.367 118.454 199.367V227.25H114.324V171.484H118.454C119.487 171.484 120.498 171.516 121.488 171.581C122.478 171.624 123.36 171.807 124.134 172.13C124.909 172.452 125.533 172.969 126.006 173.679C126.479 174.367 126.716 175.357 126.716 176.648V194.204ZM122.585 176.648C122.585 176.131 122.51 175.733 122.359 175.454C122.23 175.174 122.004 174.969 121.682 174.84C121.359 174.711 120.929 174.636 120.391 174.614C119.874 174.593 119.229 174.582 118.454 174.582V197.302C118.971 197.302 119.476 197.291 119.971 197.269C120.466 197.248 120.907 197.173 121.294 197.044C121.682 196.914 121.994 196.71 122.23 196.43C122.467 196.151 122.585 195.753 122.585 195.236V176.648Z" />
<path d="M151.171 222.087C151.171 222.345 151.138 222.818 151.074 223.507C151.009 224.174 150.783 224.862 150.396 225.572C150.009 226.282 149.396 226.906 148.557 227.444C147.717 228.003 146.523 228.283 144.974 228.283C143.425 228.283 142.231 228.003 141.392 227.444C140.553 226.906 139.94 226.282 139.553 225.572C139.165 224.862 138.939 224.174 138.875 223.507C138.81 222.818 138.778 222.345 138.778 222.087V176.648C138.778 176.475 138.789 176.217 138.81 175.873C138.832 175.529 138.896 175.152 139.004 174.744C139.112 174.313 139.294 173.883 139.553 173.453C139.811 173.001 140.166 172.592 140.618 172.226C141.069 171.861 141.65 171.57 142.36 171.355C143.07 171.118 143.942 171 144.974 171C146.007 171 146.878 171.118 147.588 171.355C148.298 171.57 148.879 171.861 149.331 172.226C149.783 172.592 150.138 173.001 150.396 173.453C150.654 173.883 150.837 174.313 150.945 174.744C151.052 175.152 151.117 175.529 151.138 175.873C151.16 176.217 151.171 176.475 151.171 176.648V222.087ZM142.909 222.087C142.909 222.345 142.92 222.657 142.941 223.023C142.963 223.367 143.038 223.7 143.167 224.023C143.296 224.346 143.501 224.625 143.78 224.862C144.06 225.077 144.458 225.185 144.974 225.185C145.491 225.185 145.889 225.077 146.168 224.862C146.448 224.625 146.652 224.346 146.782 224.023C146.911 223.7 146.986 223.367 147.007 223.023C147.029 222.657 147.04 222.345 147.04 222.087V176.648C147.04 176.389 147.029 176.11 147.007 175.809C146.986 175.507 146.911 175.238 146.782 175.002C146.652 174.744 146.448 174.528 146.168 174.356C145.889 174.184 145.491 174.098 144.974 174.098C144.458 174.098 144.06 174.184 143.78 174.356C143.501 174.528 143.296 174.744 143.167 175.002C143.038 175.238 142.963 175.507 142.941 175.809C142.92 176.11 142.909 176.389 142.909 176.648V222.087Z" />
<path d="M175.625 227.25H171.494L166.331 185.942V227.25H163.233V171.484H167.363L172.527 212.792V171.484H175.625V227.25Z" />
<path d="M199.047 171.484V174.582H194.916V227.25H190.785V174.582H186.654V171.484H199.047Z" />
<path d="M222.436 204.531H206.945V200.4H222.436V204.531Z" />
<path d="M241.71 174.582H236.547V196.269H240.678V199.367H236.547V224.152H241.71V227.25H232.416V171.484H241.71V174.582Z" />
<path d="M265.132 227.25H261.001L255.838 185.942V227.25H252.74V171.484H256.87L262.034 212.792V171.484H265.132V227.25Z" />
<path d="M285.456 176.648C285.456 176.131 285.38 175.733 285.23 175.454C285.101 175.174 284.875 174.969 284.552 174.84C284.229 174.711 283.799 174.636 283.261 174.614C282.745 174.593 282.099 174.582 281.325 174.582V224.152C282.099 224.152 282.745 224.141 283.261 224.12C283.799 224.098 284.229 224.023 284.552 223.894C284.875 223.765 285.101 223.56 285.23 223.281C285.38 223.001 285.456 222.603 285.456 222.087V176.648ZM289.587 222.087C289.587 223.378 289.35 224.378 288.877 225.088C288.403 225.776 287.779 226.282 287.005 226.605C286.23 226.927 285.348 227.121 284.358 227.186C283.369 227.229 282.358 227.25 281.325 227.25H277.194V171.484H281.325C282.358 171.484 283.369 171.516 284.358 171.581C285.348 171.624 286.23 171.807 287.005 172.13C287.779 172.452 288.403 172.969 288.877 173.679C289.35 174.367 289.587 175.357 289.587 176.648V222.087Z" />
<path d="M324.473 176.648C324.473 176.131 324.398 175.733 324.247 175.454C324.118 175.174 323.892 174.969 323.569 174.84C323.247 174.711 322.816 174.636 322.278 174.614C321.762 174.593 321.117 174.582 320.342 174.582V224.152C321.117 224.152 321.762 224.141 322.278 224.12C322.816 224.098 323.247 224.023 323.569 223.894C323.892 223.765 324.118 223.56 324.247 223.281C324.398 223.001 324.473 222.603 324.473 222.087V176.648ZM328.604 222.087C328.604 223.378 328.367 224.378 327.894 225.088C327.42 225.776 326.797 226.282 326.022 226.605C325.247 226.927 324.365 227.121 323.376 227.186C322.386 227.229 321.375 227.25 320.342 227.25H316.211V171.484H320.342C321.375 171.484 322.386 171.516 323.376 171.581C324.365 171.624 325.247 171.807 326.022 172.13C326.797 172.452 327.42 172.969 327.894 173.679C328.367 174.367 328.604 175.357 328.604 176.648V222.087Z" />
<path d="M349.96 174.582H344.797V196.269H348.927V199.367H344.797V224.152H349.96V227.25H340.666V171.484H349.96V174.582Z" />
<path d="M365.152 189.04L366.153 209.694L367.153 189.04L368.218 171.484H372.349L368.218 227.25H364.088L359.957 171.484H364.088L365.152 189.04Z" />
<path d="M392.673 174.582H387.509V196.269H391.64V199.367H387.509V224.152H392.673V227.25H383.378V171.484H392.673V174.582Z" />
<path d="M407.833 171.484V224.152H411.964V227.25H403.702V171.484H407.833Z" />
<path d="M436.418 222.087C436.418 222.345 436.386 222.818 436.321 223.507C436.257 224.174 436.031 224.862 435.644 225.572C435.256 226.282 434.643 226.906 433.804 227.444C432.965 228.003 431.771 228.283 430.222 228.283C428.673 228.283 427.479 228.003 426.64 227.444C425.801 226.906 425.188 226.282 424.8 225.572C424.413 224.862 424.187 224.174 424.123 223.507C424.058 222.818 424.026 222.345 424.026 222.087V176.648C424.026 176.475 424.036 176.217 424.058 175.873C424.08 175.529 424.144 175.152 424.252 174.744C424.359 174.313 424.542 173.883 424.8 173.453C425.058 173.001 425.413 172.592 425.865 172.226C426.317 171.861 426.898 171.57 427.608 171.355C428.318 171.118 429.189 171 430.222 171C431.255 171 432.126 171.118 432.836 171.355C433.546 171.57 434.127 171.861 434.579 172.226C435.03 172.592 435.385 173.001 435.644 173.453C435.902 173.883 436.085 174.313 436.192 174.744C436.3 175.152 436.364 175.529 436.386 175.873C436.407 176.217 436.418 176.475 436.418 176.648V222.087ZM428.157 222.087C428.157 222.345 428.167 222.657 428.189 223.023C428.21 223.367 428.286 223.7 428.415 224.023C428.544 224.346 428.748 224.625 429.028 224.862C429.308 225.077 429.706 225.185 430.222 225.185C430.738 225.185 431.136 225.077 431.416 224.862C431.696 224.625 431.9 224.346 432.029 224.023C432.158 223.7 432.234 223.367 432.255 223.023C432.277 222.657 432.287 222.345 432.287 222.087V176.648C432.287 176.389 432.277 176.11 432.255 175.809C432.234 175.507 432.158 175.238 432.029 175.002C431.9 174.744 431.696 174.528 431.416 174.356C431.136 174.184 430.738 174.098 430.222 174.098C429.706 174.098 429.308 174.184 429.028 174.356C428.748 174.528 428.544 174.744 428.415 175.002C428.286 175.238 428.21 175.507 428.189 175.809C428.167 176.11 428.157 176.389 428.157 176.648V222.087Z" />
<path d="M460.873 195.236C460.873 196.527 460.636 197.528 460.163 198.238C459.689 198.926 459.065 199.432 458.291 199.754C457.516 200.077 456.634 200.271 455.645 200.335C454.655 200.378 453.644 200.4 452.611 200.4V227.25H448.48V171.484H452.611C454.676 171.484 456.269 171.656 457.387 172C458.506 172.345 459.324 172.775 459.84 173.291C460.356 173.808 460.657 174.367 460.744 174.969C460.83 175.572 460.873 176.131 460.873 176.648V195.236ZM456.742 176.648C456.742 176.131 456.667 175.733 456.516 175.454C456.387 175.174 456.161 174.969 455.838 174.84C455.515 174.711 455.085 174.636 454.547 174.614C454.031 174.593 453.386 174.582 452.611 174.582V197.302C453.127 197.302 453.633 197.291 454.128 197.269C454.623 197.248 455.064 197.173 455.451 197.044C455.838 196.914 456.15 196.71 456.387 196.43C456.623 196.151 456.742 195.753 456.742 195.236V176.648Z" />
<path d="M481.196 174.582H476.033V196.269H480.164V199.367H476.033V224.152H481.196V227.25H471.902V171.484H481.196V174.582Z" />
<path d="M504.618 194.204C504.618 195.753 504.36 196.828 503.844 197.431C503.327 198.033 502.553 198.334 501.52 198.334C502.036 198.334 502.488 198.453 502.875 198.689C503.263 198.926 503.585 199.238 503.844 199.625C504.102 200.013 504.295 200.454 504.424 200.948C504.553 201.443 504.618 201.949 504.618 202.465V227.25H500.487V201.433C500.487 200.916 500.369 200.518 500.132 200.238C499.896 199.959 499.584 199.754 499.196 199.625C498.809 199.496 498.368 199.421 497.873 199.399C497.378 199.378 496.873 199.367 496.356 199.367V227.25H492.226V171.484H496.356C497.389 171.484 498.4 171.516 499.39 171.581C500.38 171.624 501.262 171.807 502.036 172.13C502.811 172.452 503.435 172.969 503.908 173.679C504.381 174.367 504.618 175.357 504.618 176.648V194.204ZM500.487 176.648C500.487 176.131 500.412 175.733 500.261 175.454C500.132 175.174 499.906 174.969 499.584 174.84C499.261 174.711 498.831 174.636 498.293 174.614C497.776 174.593 497.131 174.582 496.356 174.582V197.302C496.873 197.302 497.378 197.291 497.873 197.269C498.368 197.248 498.809 197.173 499.196 197.044C499.584 196.914 499.896 196.71 500.132 196.43C500.369 196.151 500.487 195.753 500.487 195.236V176.648Z" />
</svg>
