<?xml version="1.0" encoding="utf-8"?>
<!-- Generator: Adobe Illustrator 19.1.0, SVG Export Plug-In . SVG Version: 6.00 Build 0)  -->
<svg version="1.1" id="Camada_1" xmlns="http://www.w3.org/2000/svg" xmlns:xlink="http://www.w3.org/1999/xlink" x="0px" y="0px"
	 viewBox="-548 138.1 36.7 36.7" style="enable-background:new -548 138.1 36.7 36.7;" xml:space="preserve">
<style type="text/css">
	.st0{fill:#FFFFFF;}
</style>
<path id="Vimeo_3_" class="st0" d="M-516.7,140.8c-5.1-0.2-8.5,2.7-10.4,8.5c0.9-0.4,1.8-0.6,2.7-0.6c1.9,0,2.7,1,2.5,3.1
	c-0.1,1.3-0.9,3.1-2.5,5.5c-1.5,2.4-2.7,3.6-3.5,3.6c-1,0-1.9-1.8-2.7-5.5c-0.3-1.1-0.8-3.8-1.5-8.3c-0.7-4.1-2.4-6-5.3-5.8
	c-1.2,0.1-3,1.2-5.4,3.3c-1.8,1.6-3.5,3.1-5.3,4.7l1.7,2.2c1.6-1.1,2.6-1.7,2.9-1.7c1.3,0,2.4,2,3.5,5.9c1,3.6,2,7.2,3,10.7
	c1.5,3.9,3.3,5.8,5.4,5.8c3.5,0,7.7-3.2,12.7-9.6c4.8-6.1,7.3-10.9,7.5-14.5C-511.1,143.3-512.9,140.9-516.7,140.8z"/>
</svg>
