<svg width="936" height="304" viewBox="0 0 936 304" fill="none" xmlns="http://www.w3.org/2000/svg">
<path fill-rule="evenodd" clip-rule="evenodd" d="M0 3.57954H109.187C140.849 3.57954 168.387 6.97752 191.787 13.7929C215.175 20.6047 234.562 30.3938 249.919 43.183C265.399 55.845 276.891 71.3007 284.38 89.54C291.991 107.64 295.785 127.994 295.785 150.587C295.785 172.057 292.051 191.968 284.572 210.31L284.571 210.312C277.083 228.546 265.661 244.372 250.318 257.784L250.315 257.787C234.964 271.079 215.58 281.5 192.193 289.068L192.188 289.07C168.78 296.519 141.233 300.232 109.565 300.232H109.563L0 300.042V3.57954ZM283.457 89.9233C276.03 71.8372 264.639 56.5142 249.283 43.9545C234.052 31.2691 214.794 21.5353 191.507 14.753C168.221 7.97069 140.781 4.57954 109.187 4.57954H1V299.044L109.565 299.232C141.159 299.232 168.599 295.527 191.885 288.117C215.171 280.581 234.43 270.219 249.66 257.031C264.891 243.718 276.219 228.018 283.646 209.932C291.072 191.72 294.785 171.939 294.785 150.587C294.785 128.105 291.009 107.884 283.457 89.9233ZM203.85 220.319L203.855 220.315C212.801 212.008 219.513 201.965 223.992 190.172C228.474 178.369 230.723 165.179 230.723 150.587C230.723 136.248 228.474 123.375 223.995 111.954L223.994 111.951C219.518 100.413 212.811 90.6877 203.872 82.7587L203.866 82.7539L203.861 82.7489C195.045 74.6959 183.973 68.4808 170.617 64.1216C157.271 59.7656 141.709 57.577 123.914 57.577H61.8522V246.423H123.914C141.704 246.423 157.262 244.173 170.604 239.694C183.959 235.086 195.032 228.622 203.85 220.319ZM170.927 240.641C157.459 245.162 141.788 247.423 123.914 247.423H60.8522V56.577H123.914C141.788 56.577 157.459 58.775 170.927 63.1709C184.396 67.5668 195.598 73.8467 204.535 82.0106C213.598 90.0489 220.395 99.9083 224.926 111.589C229.458 123.144 231.723 136.143 231.723 150.587C231.723 165.282 229.458 178.595 224.926 190.527C220.395 202.459 213.598 212.632 204.535 221.047C195.598 229.462 184.396 235.994 170.927 240.641ZM620.502 270.031C604.39 280.33 585.761 288.431 564.615 294.334C543.468 300.111 521 303 497.21 303C466.875 303 440.253 299.106 417.344 291.319C394.436 283.407 375.303 272.605 359.947 258.915C344.59 245.099 333.01 228.897 325.206 210.309C317.528 191.595 313.689 171.499 313.689 150.022C313.689 129.047 317.654 109.517 325.584 91.4304C333.514 73.2188 344.968 57.4562 359.947 44.1429C375.051 30.7039 393.429 20.1537 415.079 12.4922C436.855 4.83074 461.463 1 488.903 1C512.944 1 534.972 3.44916 554.986 8.34748C574.787 13.0402 593.19 20.2221 610.193 29.8931C610.483 30.058 610.772 30.2236 611.062 30.3899L583.496 75.6051C583.495 75.605 583.496 75.6052 583.496 75.6051C583.218 75.4229 582.938 75.2414 582.656 75.0613C577.689 71.8909 571.99 69.0578 565.559 66.5621C558.888 63.9245 551.713 61.7266 544.035 59.9682C536.482 58.0842 528.615 56.6398 520.434 55.6351C512.378 54.6303 504.385 54.1279 496.455 54.1279C477.322 54.1279 460.267 56.5142 445.288 61.287C430.309 65.9341 417.659 72.528 407.338 81.0686C397.142 89.4837 389.338 99.5943 383.925 111.4C378.639 123.081 375.995 135.955 375.995 150.022C375.995 164.591 378.765 177.967 384.303 190.15C389.841 202.333 397.834 212.884 408.282 221.801C418.855 230.593 431.694 237.501 446.798 242.525C462.029 247.423 479.211 249.872 498.343 249.872C507.028 249.872 515.651 249.244 524.21 247.988C532.769 246.732 541.014 245.037 548.944 242.901C557 240.641 564.741 238.003 572.167 234.989C579.594 231.849 586.516 228.458 592.936 224.815L620.501 270.03L620.502 270.031ZM571.785 234.065C579.176 230.939 586.062 227.566 592.442 223.946L593.285 223.467L621.865 270.346L621.041 270.873C604.834 281.233 586.112 289.371 564.884 295.297L564.878 295.298C543.639 301.101 521.082 304 497.21 304C466.792 304 440.057 300.096 417.023 292.266L417.018 292.265C394.006 284.316 374.752 273.454 359.281 259.662L359.278 259.659C343.815 245.747 332.147 229.424 324.284 210.696L324.281 210.688C316.55 191.847 312.689 171.621 312.689 150.022C312.689 128.917 316.679 109.249 324.668 91.0289C332.656 72.684 344.197 56.8037 359.282 43.3954C374.496 29.8597 392.99 19.2482 414.745 11.5495L414.747 11.5489C436.647 3.84358 461.37 0 488.903 0C513.01 0 535.118 2.45567 555.22 7.37533C575.448 12.1695 594.23 19.5514 611.56 29.5231L612.449 30.0347L583.811 77.0089L582.946 76.4408C577.854 73.0946 571.94 70.1108 565.197 67.4943L565.191 67.492C558.571 64.8747 551.445 62.6911 543.811 60.943L543.802 60.9408L543.793 60.9384C536.282 59.0649 528.455 57.6277 520.312 56.6276L520.31 56.6274C512.294 55.6276 504.343 55.1279 496.455 55.1279C477.404 55.1279 460.454 57.5043 445.592 62.2398L445.584 62.2421C430.709 66.857 418.18 73.3946 407.975 81.8391L407.974 81.8399C397.894 90.1598 390.184 100.149 384.836 111.814C379.614 123.353 376.995 136.084 376.995 150.022C376.995 164.461 379.739 177.695 385.213 189.736C390.689 201.781 398.589 212.212 408.926 221.036C419.388 229.734 432.11 236.585 447.11 241.574C462.223 246.434 479.297 248.872 498.343 248.872C506.98 248.872 515.554 248.248 524.065 246.999C532.586 245.748 540.79 244.061 548.679 241.937C556.696 239.687 564.398 237.063 571.785 234.065ZM639.837 3.57954H798.492C817.816 3.57954 834.654 5.65836 848.99 9.83525C863.428 13.8798 875.442 19.5163 885.004 26.7671C894.562 34.0154 901.657 42.6805 906.263 52.7624C910.986 62.6988 913.343 73.4574 913.343 85.0249C913.343 103.571 907.596 119.889 896.109 133.938C909.345 141.979 919.281 152.335 925.88 165.008C932.635 177.98 936 192.711 936 209.178C936 222.981 933.652 235.486 928.937 246.676C924.343 257.882 917.258 267.494 907.699 275.507L907.698 275.508C898.258 283.4 886.296 289.485 871.846 293.785L871.84 293.787C857.503 297.965 840.6 300.044 821.149 300.044H639.837V3.57954ZM895.464 134.716C895.176 134.542 894.886 134.369 894.595 134.196C894.813 133.938 895.029 133.678 895.242 133.418C906.643 119.526 912.343 103.395 912.343 85.0249C912.343 73.5955 910.014 62.9825 905.357 53.1859C900.826 43.2637 893.84 34.723 884.399 27.5639C874.959 20.4049 863.064 14.8158 848.715 10.7966C834.491 6.6519 817.75 4.57954 798.492 4.57954H640.837V299.044H821.149C840.533 299.044 857.337 296.971 871.56 292.827C885.91 288.556 897.742 282.528 907.056 274.74C916.497 266.828 923.483 257.345 928.014 246.293C932.671 235.24 935 222.869 935 209.178C935 192.851 931.664 178.281 924.993 165.47C918.465 152.934 908.622 142.683 895.464 134.716ZM836.059 66.817L836.052 66.812C827.986 61.0807 816.018 58.1422 800.002 58.1422H701.689V116.618H821.526C826.555 116.618 831.466 116.796 836.26 117.152C844.31 109.351 848.281 100.536 848.281 90.6769C848.281 80.3135 844.213 72.4033 836.066 66.8219L836.059 66.817ZM836.631 118.183C831.722 117.806 826.687 117.618 821.526 117.618H700.689V57.1422H800.002C816.114 57.1422 828.323 60.0938 836.631 65.9969C845.064 71.7744 849.281 80.001 849.281 90.6769C849.281 100.976 845.064 110.145 836.631 118.183ZM858.649 235.915L858.654 235.911C866.819 229.223 870.938 219.794 870.938 207.483C870.938 195.172 866.819 185.676 858.647 178.861L858.642 178.856C850.584 172.034 838.644 168.543 822.659 168.543H701.689V246.046H822.659C838.648 246.046 850.591 242.616 858.649 235.915ZM700.689 247.046V167.543H822.659C838.771 167.543 850.98 171.059 859.288 178.093C867.721 185.126 871.938 194.923 871.938 207.483C871.938 220.043 867.721 229.776 859.288 236.684C850.98 243.592 838.771 247.046 822.659 247.046H700.689Z" fill="#413977" fill-opacity="0.08"/>
</svg>
