<?xml version="1.0" encoding="utf-8"?>
<!-- Generator: Adobe Illustrator 18.1.1, SVG Export Plug-In . SVG Version: 6.00 Build 0)  -->
<svg version="1.1" id="Camada_1" xmlns="http://www.w3.org/2000/svg" xmlns:xlink="http://www.w3.org/1999/xlink" x="0px" y="0px"
	 viewBox="0 0 20 26.2" enable-background="new 0 0 20 26.2" xml:space="preserve">
<g>
	<g>
		<path d="M20,26.2H0V0h20V26.2z M0.3,25.9h19.4V0.3H0.3V25.9z"/>
	</g>
	<g>
		<rect x="1.7" y="2.2" width="9" height="0.3"/>
	</g>
	<g>
		<rect x="1.7" y="6.3" width="2.1" height="0.3"/>
	</g>
	<g>
		<rect x="1.7" y="9.6" width="2.1" height="0.3"/>
	</g>
	<g>
		<rect x="1.7" y="17.3" width="2.1" height="0.3"/>
	</g>
	<g>
		<rect x="1.7" y="21.4" width="2.1" height="0.3"/>
	</g>
	<g>
		<rect x="1.7" y="1.4" width="1" height="0.2"/>
	</g>
	<g>
		<rect x="6.2" y="6.4" width="12.2" height="0.2"/>
	</g>
	<g>
		<rect x="6.2" y="6.8" width="12.2" height="0.2"/>
	</g>
	<g>
		<rect x="6.2" y="7.2" width="12.2" height="0.2"/>
	</g>
	<g>
		<rect x="6.2" y="7.6" width="12.2" height="0.2"/>
	</g>
	<g>
		<rect x="6.2" y="8" width="12.2" height="0.2"/>
	</g>
	<g>
		<rect x="6.2" y="8.4" width="12.2" height="0.2"/>
	</g>
	<g>
		<rect x="6.2" y="9.7" width="12.2" height="0.2"/>
	</g>
	<g>
		<rect x="6.2" y="10.1" width="12.2" height="0.2"/>
	</g>
	<g>
		<rect x="6.2" y="10.5" width="12.2" height="0.2"/>
	</g>
	<g>
		<rect x="6.2" y="10.9" width="12.2" height="0.2"/>
	</g>
	<g>
		<rect x="6.2" y="11.3" width="12.2" height="0.2"/>
	</g>
	<g>
		<rect x="6.2" y="11.7" width="12.2" height="0.2"/>
	</g>
	<g>
		<rect x="6.2" y="12.1" width="12.2" height="0.2"/>
	</g>
	<g>
		<rect x="6.2" y="12.5" width="12.2" height="0.2"/>
	</g>
	<g>
		<rect x="6.2" y="12.9" width="12.2" height="0.2"/>
	</g>
	<g>
		<rect x="6.2" y="13.3" width="12.2" height="0.2"/>
	</g>
	<g>
		<rect x="6.2" y="13.7" width="12.2" height="0.2"/>
	</g>
	<g>
		<rect x="6.2" y="14.2" width="12.2" height="0.2"/>
	</g>
	<g>
		<rect x="6.2" y="14.6" width="12.2" height="0.2"/>
	</g>
	<g>
		<rect x="6.2" y="15" width="12.2" height="0.2"/>
	</g>
	<g>
		<rect x="6.2" y="15.4" width="12.2" height="0.2"/>
	</g>
	<g>
		<rect x="6.2" y="15.8" width="12.2" height="0.2"/>
	</g>
	<g>
		<rect x="6.2" y="16.2" width="12.2" height="0.2"/>
	</g>
	<g>
		<rect x="6.2" y="17.4" width="12.2" height="0.2"/>
	</g>
	<g>
		<rect x="6.2" y="17.8" width="12.2" height="0.2"/>
	</g>
	<g>
		<rect x="6.2" y="18.2" width="12.2" height="0.2"/>
	</g>
	<g>
		<rect x="6.2" y="18.6" width="12.2" height="0.2"/>
	</g>
	<g>
		<rect x="6.2" y="19.1" width="12.2" height="0.2"/>
	</g>
	<g>
		<rect x="6.2" y="19.5" width="12.2" height="0.2"/>
	</g>
	<g>
		<rect x="6.2" y="19.9" width="12.2" height="0.2"/>
	</g>
	<g>
		<rect x="6.2" y="20.3" width="12.2" height="0.2"/>
	</g>
	<g>
		<rect x="6.2" y="21.5" width="12.2" height="0.2"/>
	</g>
	<g>
		<rect x="6.2" y="21.9" width="12.2" height="0.2"/>
	</g>
	<g>
		<rect x="6.2" y="22.3" width="12.2" height="0.2"/>
	</g>
	<g>
		<rect x="6.2" y="22.7" width="12.2" height="0.2"/>
	</g>
	<g>
		<rect x="6.2" y="23.1" width="12.2" height="0.2"/>
	</g>
	<g>
		<rect x="6.2" y="23.6" width="12.2" height="0.2"/>
	</g>
	<g>
		<rect x="6.2" y="24" width="12.2" height="0.2"/>
	</g>
	<g>
		<rect x="6.2" y="24.4" width="12.2" height="0.2"/>
	</g>
	<g>
		<rect x="1.7" y="3.4" width="6.7" height="0.2"/>
	</g>
	<g>
		<rect x="1.7" y="3.8" width="7.7" height="0.2"/>
	</g>
	<g>
		<rect x="1.7" y="4.3" width="6.7" height="0.2"/>
	</g>
	<g>
		<rect x="1.7" y="4.8" width="3.4" height="0.2"/>
	</g>
	<g>
		<circle cx="16.8" cy="3" r="1.5"/>
	</g>
</g>
</svg>
